<svg width="600" height="400" xmlns="http://www.w3.org/2000/svg">
  <rect width="100%" height="100%" fill="#f3f4f6"/>
  <rect x="50" y="50" width="500" height="300" rx="10" fill="#ffffff" stroke="#e5e7eb" stroke-width="2"/>
  
  <!-- Dashboard Header -->
  <rect x="80" y="80" width="440" height="40" rx="5" fill="#f9fafb"/>
  <circle cx="100" cy="100" r="10" fill="#2563eb"/>
  <rect x="120" y="95" width="100" height="10" rx="2" fill="#1f2937"/>
  <rect x="400" y="95" width="100" height="10" rx="2" fill="#6b7280"/>
  
  <!-- Dashboard Charts -->
  <rect x="80" y="140" width="210" height="180" rx="5" fill="#f9fafb" stroke="#e5e7eb" stroke-width="1"/>
  <rect x="310" y="140" width="210" height="180" rx="5" fill="#f9fafb" stroke="#e5e7eb" stroke-width="1"/>
  
  <!-- Chart 1: Bar Chart -->
  <rect x="100" y="170" width="20" height="120" fill="#3b82f6"/>
  <rect x="130" y="200" width="20" height="90" fill="#3b82f6"/>
  <rect x="160" y="150" width="20" height="140" fill="#3b82f6"/>
  <rect x="190" y="220" width="20" height="70" fill="#3b82f6"/>
  <rect x="220" y="180" width="20" height="110" fill="#3b82f6"/>
  
  <!-- Chart 2: Line Chart -->
  <polyline points="330,250 360,200 390,220 420,180 450,230 480,170" 
            fill="none" stroke="#2563eb" stroke-width="3"/>
  <circle cx="330" cy="250" r="5" fill="#2563eb"/>
  <circle cx="360" cy="200" r="5" fill="#2563eb"/>
  <circle cx="390" cy="220" r="5" fill="#2563eb"/>
  <circle cx="420" cy="180" r="5" fill="#2563eb"/>
  <circle cx="450" cy="230" r="5" fill="#2563eb"/>
  <circle cx="480" cy="170" r="5" fill="#2563eb"/>
</svg>